<svg xmlns="http://www.w3.org/2000/svg" viewBox="0 0 96 96" role="img" aria-label="chew bone">
  <defs>
    <linearGradient id="base" x1="10" y1="7" x2="86" y2="91" gradientUnits="userSpaceOnUse">
      <stop stop-color="#fffefa"/>
      <stop offset=".55" stop-color="#fff5df"/>
      <stop offset="1" stop-color="#ffe4bf"/>
    </linearGradient>
    <linearGradient id="bone" x1="13" y1="13" x2="84" y2="82" gradientUnits="userSpaceOnUse">
      <stop stop-color="#f0fffb"/>
      <stop offset=".5" stop-color="#76e3d7"/>
      <stop offset="1" stop-color="#22aaa0"/>
    </linearGradient>
  </defs>
  <rect x="5" y="5" width="86" height="86" rx="17" fill="url(#base)" stroke="#f3c9a8" stroke-width="3"/>
  <path d="M15 13c10-5 56-5 66 0" fill="none" stroke="#fff" stroke-width="5" stroke-linecap="round" opacity=".72"/>
  <ellipse cx="48" cy="78" rx="25" ry="7" fill="#8b603f" opacity=".16"/>
  <path d="M25 34c-7 1-13-4-13-12 0-7 6-13 13-13 4 0 8 2 10 5 2-5 7-8 13-8 8 0 14 6 14 14 0 2-.5 4-1.3 6l9.3 9.3c1.9-.8 3.9-1.3 6-1.3 8 0 14 6 14 14 0 6-3.5 11-8.5 13.1 3.2 2.4 5.2 6.1 5.2 10.2 0 7-6 13-13 13-8 0-13.3-6.8-12.4-14L33.8 42.8c-2.5.9-5.5 1.4-8.8 1.2Z" fill="url(#bone)" stroke="#0d837d" stroke-width="3.5" stroke-linejoin="round"/>
  <path d="M33 34l29 29" fill="none" stroke="#0d837d" stroke-width="5" stroke-linecap="round" opacity=".22"/>
  <path d="M29 29l37 37" fill="none" stroke="#c8fff6" stroke-width="3.2" stroke-linecap="round" opacity=".78"/>
  <path d="M23 18c5-5 13-5 18 0M58 70c6 4 14 2 19-4" fill="none" stroke="#eafffb" stroke-width="5" stroke-linecap="round" opacity=".86"/>
</svg>
